<?xml version="1.0" encoding="UTF-8"?>
<svg width="42px" height="48px" viewBox="0 0 42 48" version="1.1" xmlns="http://www.w3.org/2000/svg" xmlns:xlink="http://www.w3.org/1999/xlink">
    <!-- Generator: Sketch 45.2 (43514) - http://www.bohemiancoding.com/sketch -->
    <title>noun_1280242_cc</title>
    <desc>Created with Sketch.</desc>
    <defs></defs>
    <g id="Page-1" stroke="none" stroke-width="1" fill="none" fill-rule="evenodd">
        <g id="noun_1280242_cc" fill-rule="nonzero" fill="#000000">
            <g id="Group">
                <path d="M41.3500366,7.5100174 L21.3500366,0.0600052 C21.1300049,-0.0200119 20.8800049,-0.0200119 20.6500244,0.0600052 L0.6500244,7.5100174 C0.2600098,7.6599808 0,8.0299759 0,8.4500198 C0,8.8700027 0.2600098,9.2399978 0.6500244,9.3900222 L5.263977,11.1085281 C5.2473144,11.1809158 5.2199096,11.2493972 5.2199096,11.3268509 L5.2199096,23.3556595 C5.2199096,23.9079056 5.6671752,24.3556595 6.2199096,24.3556595 C6.772644,24.3556595 7.2199096,23.9079056 7.2199096,23.3556595 L7.2199096,11.8369827 L9.4597167,12.6712723 C9.4421996,12.74543 9.4259643,12.8202591 9.4259643,12.8986283 L9.4259643,17.2946244 C9.4259643,24.1153031 13.0628051,29.8488847 17.97052,31.5000077 L13.290039,31.5000077 L21.0700073,42.8999711 L27.5599975,31.5000077 L23.7521362,31.5000077 C28.6592407,29.8488847 32.2960815,24.1153031 32.2960815,17.2946244 L32.2960815,12.8986283 C32.2960815,12.852974 32.283081,12.8103715 32.2770385,12.7659989 L41.3500365,9.3900223 C41.7400513,9.2399979 42,8.8700027 42,8.4500198 C42,8.0299759 41.7400513,7.6599808 41.3500366,7.5100174 Z M30.2960815,17.2946243 C30.2960815,24.2965774 26.0656127,29.9933548 20.8654174,29.9933548 L20.857605,29.9933548 C15.6574097,29.9933548 11.4259644,24.2965775 11.4259644,17.2946243 L11.4259644,13.5670852 C11.5176392,13.5305862 11.6103516,13.4953689 11.703003,13.4599075 C11.7427369,13.4643631 11.7799073,13.4799881 11.8200074,13.4799881 C11.9300538,13.4799881 12.0500489,13.4600296 12.1600343,13.4199905 C15.2434694,12.2987136 18.293274,11.7056961 21.3000489,11.6157302 C23.9340211,11.646614 26.5341798,12.1164626 29.0949097,13.0734328 C29.4992066,13.2184523 29.9015503,13.3766555 30.2960816,13.5460891 L30.2960816,17.2946243 L30.2960815,17.2946243 Z" id="Shape"></path>
                <path d="M30.0502319,31.167305 L21.2238159,46.6730423 L10.7390137,31.3097 C5.5403443,32.3134231 1.6000366,36.8924637 1.6000366,42.3800125 L1.6000366,43.2799759 C1.6000366,45.8800125 3.7200317,48.0000076 6.3200073,48.0000076 L35.4100342,48.0000076 C38.0100098,48.0000076 40.1200562,45.8800125 40.1200562,43.2799759 L40.1200562,42.3800125 C40.1200562,36.5690994 35.7028809,31.7733841 30.0502319,31.167305 Z" id="Shape"></path>
            </g>
        </g>
    </g>
</svg>