<?xml version="1.0" encoding="UTF-8"?>
<svg width="53px" height="53px" viewBox="0 0 53 53" version="1.1" xmlns="http://www.w3.org/2000/svg" xmlns:xlink="http://www.w3.org/1999/xlink">
    <!-- Generator: Sketch 45.2 (43514) - http://www.bohemiancoding.com/sketch -->
    <title>Group</title>
    <desc>Created with Sketch.</desc>
    <defs></defs>
    <g id="Page-1" stroke="none" stroke-width="1" fill="none" fill-rule="evenodd">
        <g id="noun_222339_cc" fill-rule="nonzero" fill="#000000">
            <g id="Group">
                <g id="Combined-Shape">
                    <g>
                        <path d="M26.1669672,52.3339345 C40.6185841,52.3339345 52.3339345,40.6185841 52.3339345,26.1669672 C52.3339345,11.7153503 40.6185841,0 26.1669672,0 C11.7153503,0 0,11.7153503 0,26.1669672 C0,40.6185841 11.7153503,52.3339345 26.1669672,52.3339345 Z M26.1669672,50.58947 C12.6787914,50.58947 1.74446448,39.6551431 1.74446448,26.1669672 C1.74446448,12.6787914 12.6787914,1.74446448 26.1669672,1.74446448 C39.6551431,1.74446448 50.58947,12.6787914 50.58947,26.1669672 C50.58947,39.6551431 39.6551431,50.58947 26.1669672,50.58947 Z M17.2178804,20.0284144 L21.9293546,22.6109957 L21.0295432,17.1410024 L24.8412078,13.2671341 L19.5736187,12.4690692 L17.2178807,7.4923035 L14.8621441,12.469068 L9.59455466,13.2671301 L13.4062177,17.1410014 L12.5064065,22.6109956 L17.2178804,20.0284144 Z M17.325718,18.3571195 L14.5241835,19.8927728 L15.0592289,16.6402073 L12.7927395,14.3367278 L15.9249512,13.8621844 L17.3257182,10.902903 L18.726486,13.8621852 L21.8586974,14.3367301 L19.5922072,16.6402079 L20.1272526,19.8927728 L17.325718,18.3571195 Z M26.1669671,8.95892855 L27.0654156,9.4269482 L26.8938272,8.43566701 L27.6206877,7.73363819 L26.6161916,7.58901156 L26.1669671,6.68711385 L25.717743,7.58901132 L24.7132468,7.73363746 L25.440107,8.43566681 L25.2685187,9.4269482 L26.1669671,8.95892855 Z M31.1096163,13.0293457 L32.008065,13.4973653 L31.8364765,12.5060841 L32.563337,11.8040553 L31.5588409,11.6594287 L31.1096166,10.757531 L30.6603923,11.6594285 L29.6558962,11.8040546 L30.3827564,12.5060839 L30.211168,13.4973653 L31.1096163,13.0293457 Z M31.1096163,19.4257155 L32.008065,19.8937351 L31.8364765,18.9024539 L32.563337,18.2004251 L31.5588409,18.0557984 L31.1096166,17.1539008 L30.6603923,18.0557982 L29.6558962,18.2004244 L30.3827564,18.9024537 L30.211168,19.8937351 L31.1096163,19.4257155 Z M26.1669671,24.0776208 L27.0654156,24.5456404 L26.8938272,23.5543592 L27.6206877,22.8523303 L26.6161916,22.7077037 L26.1669671,21.805806 L25.717743,22.7077035 L24.7132468,22.8523296 L25.440107,23.554359 L25.2685187,24.5456404 L26.1669671,24.0776208 Z"></path>
                    </g>
                </g>
            </g>
        </g>
    </g>
</svg>