<?xml version="1.0" encoding="UTF-8"?>
<svg width="35px" height="34px" viewBox="0 0 35 34" version="1.1" xmlns="http://www.w3.org/2000/svg" xmlns:xlink="http://www.w3.org/1999/xlink">
    <!-- Generator: Sketch 45.2 (43514) - http://www.bohemiancoding.com/sketch -->
    <title>noun_893591_cc</title>
    <desc>Created with Sketch.</desc>
    <defs></defs>
    <g id="Page-1" stroke="none" stroke-width="1" fill="none" fill-rule="evenodd">
        <g id="noun_893591_cc" fill-rule="nonzero" fill="#000000">
            <g id="Group">
                <path d="M29.5099993,4.01979158 C29.6518743,3.68874992 29.7464577,3.31041659 29.7464577,2.93208327 C29.7464577,1.41874997 28.5168744,0.189166662 27.0035411,0.189166662 C25.4902078,0.189166662 24.2606245,1.41874997 24.2606245,2.93208327 C24.2606245,4.44541657 25.4902078,5.67499987 27.0035411,5.67499987 C27.4764577,5.67499987 27.9493744,5.53312488 28.3277077,5.34395821 C31.3070826,8.27604148 33.0095826,12.2485414 33.0095826,16.4574996 C33.0095826,25.0172911 26.0577077,32.0164576 17.4506246,32.0164576 C8.89083313,31.969166 1.89166662,24.9699994 1.89166662,16.410208 C1.89166662,13.147083 2.93208327,9.97854144 4.82374989,7.33020817 C5.10749989,7.4247915 5.43854154,7.51937483 5.81687487,7.51937483 C7.33020817,7.51937483 8.55979147,6.28979153 8.55979147,4.77645823 C8.55979147,3.26312493 7.33020817,2.03354162 5.81687487,2.03354162 C4.30354157,2.03354162 3.07395826,3.26312493 3.07395826,4.77645823 C3.07395826,5.29666655 3.21583326,5.7695832 3.45229159,6.19520819 C1.32416664,9.17458313 0.141874997,12.7687497 0.141874997,16.410208 C0.141874997,25.9631244 7.89770816,33.7189576 17.4506246,33.7189576 C27.0035411,33.7189576 34.7593742,25.9631244 34.7593742,16.410208 C34.7593742,11.6810414 32.8677076,7.23562484 29.5099993,4.01979158 Z M26.0104161,2.93208327 C26.0104161,2.41187495 26.4360411,1.93895829 27.0035411,1.93895829 C27.571041,1.93895829 27.996666,2.36458328 27.996666,2.93208327 C27.996666,3.49958325 27.571041,3.92520825 27.0035411,3.92520825 C26.4360411,3.92520825 26.0104161,3.45229159 26.0104161,2.93208327 Z M5.81687487,3.83062491 C6.33708319,3.83062491 6.80999985,4.2562499 6.80999985,4.82374989 C6.80999985,5.39124988 6.38437486,5.81687487 5.81687487,5.81687487 C5.24937488,5.81687487 4.82374989,5.39124988 4.82374989,4.82374989 C4.82374989,4.2562499 5.29666655,3.83062491 5.81687487,3.83062491 Z" id="Shape"></path>
                <path d="M9.36374979,13.6672914 C9.0799998,14.565833 8.89083313,15.4643747 8.89083313,16.410208 C8.89083313,21.1393745 12.721458,24.9699994 17.4506246,24.9699994 C22.1797912,24.9699994 26.0104161,21.1393745 26.0104161,16.410208 C26.0104161,15.0860413 25.7266661,13.8091664 25.1118744,12.6268747 C25.4429161,12.1539581 25.6320828,11.5864581 25.6320828,11.0189581 C25.6320828,9.50562479 24.4024995,8.27604148 22.8891662,8.27604148 C21.3758329,8.27604148 20.1462495,9.50562479 20.1462495,11.0189581 C20.1462495,12.5322914 21.3758329,13.7618747 22.8891662,13.7618747 C23.1256245,13.7618747 23.3620828,13.714583 23.5985411,13.6672914 C23.9768745,14.5185413 24.1660411,15.4643747 24.1660411,16.4574996 C24.1660411,20.1935412 21.1393745,23.2202078 17.4033329,23.2202078 C13.6672914,23.2202078 10.6406248,20.1935412 10.6406248,16.4574996 C10.6406248,15.7481246 10.7352081,15.0387497 10.9716664,14.3766663 C11.0189581,14.3766663 11.1135414,14.3766663 11.1608331,14.3766663 C12.6741664,14.3766663 13.9037497,13.147083 13.9037497,11.6337497 C13.9037497,10.1204164 12.6741664,8.89083313 11.1608331,8.89083313 C9.64749978,8.89083313 8.41791648,10.1204164 8.41791648,11.6337497 C8.46520814,12.4377081 8.7962498,13.147083 9.36374979,13.6672914 Z M21.9433328,11.0189581 C21.9433328,10.4987498 22.3689578,10.0258331 22.9364578,10.0258331 C23.5039578,10.0258331 23.9295828,10.4514581 23.9295828,11.0189581 C23.9295828,11.5864581 23.5039578,12.0120831 22.9364578,12.0120831 C22.3689578,12.0120831 21.9433328,11.5391664 21.9433328,11.0189581 Z M11.2081247,10.6406248 C11.7283331,10.6406248 12.2012497,11.0662498 12.2012497,11.6337497 C12.2012497,12.2012497 11.7756247,12.6268747 11.2081247,12.6268747 C10.6406248,12.6268747 10.2149998,12.2012497 10.2149998,11.6337497 C10.2149998,11.0662498 10.6406248,10.6406248 11.2081247,10.6406248 Z" id="Shape"></path>
                <path d="M15.6062497,6.95187484 C16.693958,6.95187484 17.6397913,6.28979153 18.1127079,5.34395821 C20.8556245,5.48583321 23.3620828,6.62083318 25.3010411,8.55979147 C27.3818744,10.6406248 28.564166,13.430833 28.564166,16.3629163 C28.564166,22.4635412 23.5985411,27.4291661 17.4979163,27.4291661 C13.3835414,27.4291661 9.64749978,25.1591661 7.75583316,21.5649995 C8.27604148,21.0447912 8.60708314,20.3354162 8.60708314,19.5787496 C8.60708314,18.0654163 7.37749983,16.835833 5.86416654,16.835833 C4.35083324,16.835833 3.12124993,18.0654163 3.12124993,19.5787496 C3.12124993,21.0920829 4.35083324,22.3216662 5.86416654,22.3216662 C5.95874987,22.3216662 6.0533332,22.3216662 6.10062486,22.3216662 C8.32333315,26.5306244 12.6741664,29.2262493 17.4979163,29.2262493 C24.5916661,29.2262493 30.3139577,23.4566661 30.3139577,16.410208 C30.3139577,12.9579164 28.989791,9.74208312 26.5306244,7.33020817 C24.3079161,5.10749989 21.3758329,3.78333325 18.2545829,3.59416659 C17.9708329,2.36458328 16.8831246,1.46604163 15.558958,1.46604163 C14.0456247,1.46604163 12.8160414,2.69562494 12.8160414,4.20895824 C12.8160414,5.72229154 14.0929164,6.95187484 15.6062497,6.95187484 Z M4.87104156,19.6260412 C4.87104156,19.1058329 5.29666655,18.6329162 5.86416654,18.6329162 C6.43166652,18.6329162 6.85729151,19.0585412 6.85729151,19.6260412 C6.85729151,20.1935412 6.43166652,20.6191662 5.86416654,20.6191662 C5.29666655,20.6191662 4.87104156,20.1935412 4.87104156,19.6260412 Z M15.6062497,3.26312493 C16.126458,3.26312493 16.5993746,3.68874992 16.5993746,4.2562499 C16.5993746,4.82374989 16.126458,5.20208322 15.6062497,5.20208322 C15.0860413,5.20208322 14.6131247,4.77645823 14.6131247,4.20895824 C14.6131247,3.64145825 15.0387497,3.26312493 15.6062497,3.26312493 Z" id="Shape"></path>
            </g>
        </g>
    </g>
</svg>