<?xml version="1.0" encoding="UTF-8"?>
<svg width="64px" height="44px" viewBox="0 0 64 44" version="1.1" xmlns="http://www.w3.org/2000/svg" xmlns:xlink="http://www.w3.org/1999/xlink">
    <!-- Generator: Sketch 45.2 (43514) - http://www.bohemiancoding.com/sketch -->
    <title>noun_345574_cc</title>
    <desc>Created with Sketch.</desc>
    <defs></defs>
    <g id="Page-1" stroke="none" stroke-width="1" fill="none" fill-rule="evenodd">
        <g id="noun_345574_cc" transform="translate(0.000000, -10.000000)" fill-rule="nonzero" fill="#000000">
            <path d="M63.992,49.447 L60.193,49.447 L60.193,13.153 C60.193,11.719 59.027,10.553 57.593,10.553 L6.413,10.553 C4.979,10.553 3.813,11.72 3.813,13.153 L3.813,49.446 L0.003,49.446 L0.003,50.946 L0.009,50.946 L3.208,53.446 L60.798,53.446 L63.997,50.946 L63.991,50.946 L63.991,49.447 L63.992,49.447 Z M29.994,38.242 L29.994,36.242 L36.051,36.242 L36.051,38.242 L29.994,38.242 Z M33.534,39.947 L33.534,41.947 L28.424,41.947 L28.424,39.947 L33.534,39.947 Z M26.316,34.536 L26.316,32.536 L37.104,32.536 L37.104,34.536 L26.316,34.536 Z M21.451,30.831 L21.451,28.831 L32.871,28.831 L32.871,30.831 L21.451,30.831 Z M22.017,32.536 L22.017,34.536 L16.907,34.536 L16.907,32.536 L22.017,32.536 Z M16.908,27.127 L16.908,25.127 L22.018,25.127 L22.018,27.127 L16.908,27.127 Z M24.451,27.127 L24.451,25.127 L29.561,25.127 L29.561,27.127 L24.451,27.127 Z M31.994,27.127 L31.994,25.127 L42.093,25.127 L42.093,27.127 L31.994,27.127 Z M22.424,36.242 L27.534,36.242 L27.534,38.242 L22.424,38.242 L22.424,36.242 Z M36.538,30.831 L36.538,28.831 L41.647,28.831 L41.647,30.831 L36.538,30.831 Z M39.982,32.536 L45.092,32.536 L45.092,34.536 L39.982,34.536 L39.982,32.536 Z M44.538,27.127 L44.538,25.127 L49.647,25.127 L49.647,27.127 L44.538,27.127 Z M38.538,17.717 L48.654,17.717 L48.654,19.717 L38.538,19.717 L38.538,17.717 Z M36.538,21.422 L41.647,21.422 L41.647,23.422 L36.538,23.422 L36.538,21.422 Z M29.994,17.717 L35.104,17.717 L35.104,19.717 L29.994,19.717 L29.994,17.717 Z M28.994,21.422 L34.104,21.422 L34.104,23.422 L28.994,23.422 L28.994,21.422 Z M21.451,17.717 L26.561,17.717 L26.561,19.717 L21.451,19.717 L21.451,17.717 Z M21.451,21.422 L26.561,21.422 L26.561,23.422 L21.451,23.422 L21.451,21.422 Z M13.908,17.717 L19.018,17.717 L19.018,19.717 L13.908,19.717 L13.908,17.717 L13.908,17.717 Z M19.017,38.242 L13.907,38.242 L13.907,36.242 L19.017,36.242 L19.017,38.242 Z M25.017,41.947 L19.907,41.947 L19.907,39.947 L25.017,39.947 L25.017,41.947 Z M35.916,50.947 L28.079,50.947 C27.139,50.947 26.388,50.289 26.235,49.447 L37.76,49.447 C37.607,50.289 36.856,50.947 35.916,50.947 Z M42.051,41.947 L35.994,41.947 L35.994,39.947 L42.051,39.947 L42.051,41.947 Z M39.982,38.242 L38.982,38.242 L38.982,36.242 L39.982,36.242 L44.092,36.242 L45.092,36.242 L45.092,38.242 L44.092,38.242 L39.982,38.242 Z M50.093,41.947 L44.983,41.947 L44.983,39.947 L50.093,39.947 L50.093,41.947 Z" id="Shape"></path>
        </g>
    </g>
</svg>